<?xml version="1.0" standalone="no"?>
<!DOCTYPE svg PUBLIC "-//W3C//DTD SVG 20010904//EN"
 "http://www.w3.org/TR/2001/REC-SVG-20010904/DTD/svg10.dtd">
<svg version="1.0" xmlns="http://www.w3.org/2000/svg"
 width="1037.000000pt" height="301.000000pt" viewBox="0 0 1037.000000 301.000000"
 preserveAspectRatio="xMidYMid meet">

<g transform="translate(0.000000,301.000000) scale(0.100000,-0.100000)"
fill="#FF0011" stroke="none">
<path d="M536 2730 c-75 -12 -171 -57 -223 -104 -92 -83 -125 -251 -71 -367
47 -101 129 -160 349 -249 117 -47 167 -83 190 -136 54 -120 -37 -230 -199
-242 -92 -6 -164 11 -266 63 -48 25 -93 45 -101 45 -31 0 -40 -131 -12 -174
16 -24 81 -59 157 -83 25 -8 95 -17 155 -20 226 -11 384 62 461 214 26 51 29
68 29 148 0 180 -70 254 -345 366 -116 47 -141 60 -183 98 -39 35 -57 73 -57
118 0 92 72 152 191 161 80 5 137 -7 236 -53 l73 -34 15 22 c15 22 20 84 9
125 -19 70 -247 127 -408 102z"/>
<path d="M3075 2729 c-208 -30 -357 -170 -420 -394 -22 -80 -31 -329 -15 -421
37 -217 142 -361 308 -425 72 -27 225 -37 314 -19 77 14 214 78 246 113 51 55
50 207 -2 207 -6 0 -42 -22 -79 -50 -93 -67 -163 -92 -257 -92 -166 -1 -263
91 -305 289 -31 145 -11 349 46 461 55 108 132 153 259 154 92 0 161 -24 251
-87 35 -25 69 -45 75 -45 6 0 19 9 29 20 14 15 17 32 13 84 -3 55 -8 70 -32
95 -41 43 -146 91 -234 107 -86 15 -111 15 -197 3z"/>
<path d="M4195 2729 c-208 -30 -357 -170 -420 -394 -22 -80 -31 -329 -15 -421
37 -217 142 -361 308 -425 72 -27 225 -37 314 -19 77 14 214 78 246 113 51 55
50 207 -2 207 -6 0 -42 -22 -79 -50 -93 -67 -163 -92 -257 -92 -166 -1 -263
91 -305 289 -31 145 -11 349 46 461 55 108 132 153 259 154 92 0 161 -24 251
-87 35 -25 69 -45 75 -45 6 0 19 9 29 20 14 15 17 32 13 84 -3 55 -8 70 -32
95 -41 43 -146 91 -234 107 -86 15 -111 15 -197 3z"/>
<path d="M5301 2725 c-149 -33 -280 -130 -348 -260 -58 -111 -77 -201 -77
-370 -1 -159 8 -217 49 -325 50 -131 163 -235 304 -282 170 -56 555 -15 638
68 18 18 23 34 23 77 0 30 -6 62 -14 73 -14 19 -15 19 -63 0 -143 -56 -205
-69 -328 -69 -103 -1 -128 2 -179 22 -120 48 -186 143 -205 300 -6 47 -10 86
-8 87 1 2 182 4 401 6 l398 3 24 28 c21 25 24 37 24 115 0 95 -25 210 -61 287
-34 72 -121 160 -192 195 -115 56 -256 73 -386 45z m219 -169 c118 -34 194
-141 202 -286 l3 -55 -315 0 -315 0 3 35 c13 149 104 272 229 306 55 15 141
15 193 0z"/>
<path d="M6526 2729 c-74 -11 -171 -55 -223 -103 -93 -84 -125 -250 -71 -367
46 -100 112 -149 303 -229 189 -79 234 -113 249 -189 16 -85 -41 -167 -134
-195 -109 -32 -220 -16 -352 54 -43 22 -85 40 -93 40 -28 0 -40 -123 -16 -169
13 -23 88 -65 160 -88 25 -8 98 -17 161 -20 98 -5 127 -2 194 16 132 36 209
95 263 201 24 48 28 66 28 145 0 182 -71 256 -355 370 -106 43 -132 57 -173
94 -57 52 -71 114 -42 184 48 115 262 130 434 30 l44 -26 19 23 c20 24 24 92
9 133 -12 32 -94 72 -186 92 -77 16 -129 17 -219 4z"/>
<path d="M7566 2729 c-74 -11 -171 -55 -223 -103 -93 -84 -125 -250 -71 -367
46 -100 112 -149 303 -229 189 -79 234 -113 249 -189 16 -85 -41 -167 -134
-195 -109 -33 -214 -17 -345 50 -47 24 -92 44 -100 44 -19 0 -29 -35 -28 -97
2 -68 14 -88 75 -119 84 -43 137 -55 258 -61 98 -5 127 -2 194 16 96 26 151
58 206 117 64 69 83 123 84 229 1 75 -3 98 -22 137 -48 96 -121 148 -332 233
-106 43 -132 57 -173 94 -57 52 -71 114 -42 184 48 115 262 130 434 30 l44
-26 19 23 c20 24 24 92 9 133 -12 32 -94 72 -186 92 -77 16 -129 17 -219 4z"/>
<path d="M9736 2730 c-74 -12 -171 -57 -223 -103 -96 -87 -125 -247 -69 -372
44 -96 130 -157 347 -245 117 -47 167 -83 190 -136 54 -120 -37 -230 -199
-242 -92 -6 -164 11 -266 63 -48 25 -93 45 -101 45 -28 0 -40 -124 -16 -168
29 -55 165 -102 316 -109 227 -11 384 62 461 214 26 51 29 68 29 148 0 180
-70 254 -345 366 -116 47 -141 60 -183 98 -39 35 -57 73 -57 118 0 92 72 152
191 161 80 5 137 -7 236 -53 l73 -34 15 22 c15 22 20 84 9 125 -19 70 -247
127 -408 102z"/>
<path d="M1332 2709 l-23 -9 3 -447 c4 -398 6 -454 22 -503 61 -185 173 -276
353 -288 143 -9 250 34 381 152 l52 48 0 -81 c0 -70 3 -82 20 -91 55 -29 166
-15 175 23 3 12 4 282 3 600 -3 559 -4 579 -22 593 -23 16 -131 19 -170 4
l-26 -10 0 -420 0 -421 -77 -77 c-43 -42 -103 -90 -133 -106 -106 -58 -239
-31 -302 60 -53 76 -58 121 -58 551 0 462 7 433 -107 432 -38 0 -78 -4 -91
-10z"/>
<path d="M8161 2703 c-18 -15 -20 -23 -12 -48 22 -76 415 -1114 432 -1145 l20
-36 -80 -203 c-45 -112 -81 -211 -81 -221 0 -52 201 -53 229 -1 6 10 40 101
76 202 37 101 114 315 172 474 286 793 333 927 333 950 0 14 -8 29 -19 35 -28
14 -154 13 -174 -2 -10 -8 -83 -206 -177 -483 -89 -258 -163 -471 -165 -474
-8 -8 -10 -2 -99 249 -48 135 -122 342 -164 460 -46 130 -85 224 -99 238 -19
19 -33 22 -96 22 -56 0 -80 -4 -96 -17z"/>
<path d="M980 1008 c-18 -30 -60 -185 -60 -222 0 -13 -12 -16 -66 -16 -48 0
-65 -3 -61 -12 2 -8 24 -13 58 -13 l54 0 1 -175 c0 -114 4 -185 12 -204 19
-43 25 -25 13 36 -16 77 -19 204 -7 278 12 71 20 77 103 79 75 2 60 21 -16 21
-68 0 -71 1 -71 24 0 13 7 42 15 65 8 22 12 41 10 41 -7 0 27 75 43 93 22 25
79 23 87 -3 7 -23 25 -27 25 -7 0 26 -36 47 -78 47 -37 0 -45 -4 -62 -32z"/>
<path d="M2970 1014 c0 -5 -10 -21 -22 -34 -61 -68 -64 -75 -22 -42 58 45 70
60 56 74 -7 7 -12 8 -12 2z"/>
<path d="M9075 1006 c-6 -8 -25 -33 -43 -55 -44 -53 -35 -52 25 3 33 31 45 48
38 55 -7 7 -13 6 -20 -3z"/>
<path d="M4864 969 c14 -49 18 -196 8 -269 -11 -77 -6 -160 9 -160 5 0 32 45
59 101 45 88 106 169 130 169 13 0 17 -30 17 -152 1 -64 4 -121 8 -127 11 -18
26 -1 19 21 -3 11 -7 73 -7 137 -2 114 -11 151 -39 151 -26 0 -111 -108 -148
-187 -30 -64 -45 -68 -36 -10 4 23 9 92 11 153 4 109 -5 177 -27 190 -8 5 -9
0 -4 -17z"/>
<path d="M5976 853 c-11 -200 -8 -285 10 -303 13 -13 20 -12 59 9 44 23 82 57
74 65 -3 3 -26 -8 -52 -25 -26 -16 -54 -29 -62 -29 -21 0 -23 36 -11 268 5 94
4 152 -1 152 -6 0 -13 -62 -17 -137z"/>
<path d="M8146 853 c-18 -325 -7 -352 103 -273 58 42 51 55 -9 20 -28 -17 -57
-30 -65 -30 -21 0 -23 38 -11 268 5 92 4 152 -2 152 -5 0 -12 -62 -16 -137z"/>
<path d="M2666 880 l5 -70 -31 0 c-36 0 -37 -23 -2 -28 20 -3 22 -9 22 -66 0
-86 8 -121 36 -151 25 -27 61 -32 112 -14 45 16 30 29 -19 17 -31 -8 -46 -8
-66 3 -34 18 -43 46 -43 133 l0 73 88 15 87 16 -88 1 -88 1 5 52 c6 54 1 88
-14 88 -5 0 -7 -31 -4 -70z"/>
<path d="M4055 880 l6 -70 -31 0 c-36 0 -37 -23 -2 -28 20 -3 22 -9 22 -72 0
-76 22 -145 51 -160 23 -13 59 -13 97 1 45 16 30 29 -19 17 -31 -8 -46 -8 -66
3 -34 18 -43 46 -43 133 l0 73 88 15 87 16 -88 1 -88 1 5 52 c7 55 1 88 -15
88 -5 0 -7 -29 -4 -70z"/>
<path d="M8775 880 l6 -70 -31 0 c-36 0 -37 -23 -2 -28 20 -3 22 -9 22 -72 0
-76 22 -145 51 -160 23 -13 59 -13 97 1 45 16 30 29 -19 17 -31 -8 -46 -8 -66
3 -34 18 -43 46 -43 133 l0 73 88 15 87 16 -88 1 -88 1 5 52 c7 55 1 88 -15
88 -5 0 -7 -29 -4 -70z"/>
<path d="M242 907 c-17 -21 -23 -296 -7 -335 18 -42 25 -41 15 3 -8 34 -6 81
6 210 3 33 7 75 9 93 3 36 -7 49 -23 29z"/>
<path d="M2363 860 c-29 -26 -58 -124 -70 -233 -5 -50 -3 -60 15 -77 21 -20
21 -20 52 6 17 15 51 55 76 90 25 35 49 64 53 64 3 0 6 -30 6 -67 -2 -81 3
-103 21 -103 21 0 25 17 7 35 -15 15 -15 27 -5 119 7 55 13 112 15 125 2 20
-5 26 -53 42 -72 23 -92 23 -117 -1z m125 -33 c21 -22 22 -26 7 -53 -8 -16
-15 -32 -15 -36 0 -8 -9 -20 -74 -97 -48 -57 -72 -75 -92 -67 -17 6 -14 33 16
153 29 112 36 121 101 122 25 1 42 -6 57 -22z"/>
<path d="M4361 835 c-17 -20 -31 -40 -31 -45 0 -5 -6 -15 -13 -22 -19 -19 -40
-169 -28 -201 12 -30 47 -57 76 -57 40 0 114 57 115 89 0 12 -2 12 -12 -1 -66
-80 -168 -73 -168 12 0 52 16 93 34 87 22 -9 90 30 109 62 21 36 22 75 1 95
-24 25 -49 19 -83 -19z m79 -19 c0 -39 -84 -105 -106 -83 -13 12 40 97 65 105
33 12 41 7 41 -22z"/>
<path d="M6577 841 c-63 -41 -123 -174 -110 -244 15 -79 83 -66 189 38 40 38
74 77 77 85 8 25 17 6 24 -51 24 -184 -15 -278 -120 -294 -48 -7 -97 7 -97 30
0 9 -9 15 -21 15 -31 0 -20 -30 21 -52 27 -15 48 -18 87 -14 64 6 107 34 130
84 38 86 8 450 -34 409 -3 -4 0 -20 6 -38 9 -28 7 -38 -17 -83 -37 -68 -151
-158 -196 -154 -28 3 -31 7 -34 42 -4 50 30 130 75 178 43 44 76 55 109 33 19
-12 24 -13 24 -2 0 39 -64 49 -113 18z"/>
<path d="M7627 845 c-56 -19 -87 -52 -87 -91 0 -45 24 -68 105 -99 107 -41
117 -55 60 -79 -44 -19 -157 -24 -163 -8 -4 13 -42 17 -42 4 0 -23 30 -32 110
-32 87 0 124 11 144 42 18 29 -4 50 -88 84 -86 34 -116 55 -116 82 0 40 87 89
140 78 32 -6 38 2 18 22 -15 15 -33 15 -81 -3z"/>
<path d="M10067 845 c-75 -26 -106 -81 -77 -135 10 -18 72 -52 120 -65 34 -10
70 -33 70 -46 0 -29 -188 -59 -198 -31 -4 13 -42 17 -42 4 0 -23 30 -32 110
-32 87 0 124 11 144 42 18 30 -5 51 -99 88 -100 40 -119 62 -91 105 21 33 82
58 124 51 34 -5 40 2 20 22 -15 15 -33 15 -81 -3z"/>
<path d="M1689 843 c-1 -4 -1 -12 0 -17 3 -16 0 -160 -4 -204 -4 -46 2 -72 16
-72 4 0 40 53 78 118 77 131 97 154 112 131 5 -8 9 -23 9 -34 5 -150 8 -193
17 -209 10 -19 12 -18 37 8 14 16 46 64 72 108 26 43 48 77 51 75 2 -3 6 -27
9 -53 10 -118 55 -169 112 -127 14 10 28 25 30 32 3 8 -9 3 -26 -9 -63 -47
-97 4 -96 143 1 48 -1 87 -5 87 -3 0 -31 -41 -61 -91 -67 -110 -99 -151 -111
-143 -6 3 -9 47 -8 99 1 92 -11 144 -38 152 -12 4 -64 -63 -133 -172 -19 -30
-38 -55 -42 -55 -4 0 -5 51 -1 114 4 80 3 115 -6 120 -6 4 -12 4 -12 -1z"/>
<path d="M4607 818 c-53 -70 -72 -189 -42 -248 13 -26 21 -30 57 -30 26 0 57
9 82 24 36 21 49 37 75 91 2 6 -9 -5 -26 -23 -39 -41 -116 -76 -149 -68 -48
12 -53 89 -13 182 33 78 93 93 101 27 2 -15 9 -28 16 -31 9 -3 12 4 8 25 -2
15 -5 34 -5 40 -1 12 -51 43 -70 43 -5 0 -21 -15 -34 -32z"/>
<path d="M6930 840 c-1 -8 -3 -58 -6 -110 -11 -196 1 -224 74 -186 42 22 120
89 162 140 28 34 39 42 44 30 3 -8 5 -86 3 -173 -2 -157 -2 -158 -31 -195 -64
-85 -160 -87 -243 -7 -36 34 -27 79 22 111 23 15 26 20 12 20 -10 0 -32 -14
-49 -30 -25 -26 -29 -35 -23 -63 9 -39 63 -92 112 -108 52 -17 121 -4 156 29
57 53 60 69 63 301 3 140 0 220 -7 233 -9 16 -13 18 -19 8 -5 -7 -7 -22 -4
-33 9 -50 -61 -137 -171 -213 -44 -30 -70 -43 -77 -36 -14 14 -18 71 -7 113
13 53 13 159 0 172 -8 8 -11 7 -11 -3z"/>
<path d="M1178 823 c-57 -66 -92 -246 -56 -290 15 -19 46 -16 96 8 81 40 127
137 102 213 -23 70 -106 110 -142 69z m82 -13 c43 -23 63 -118 36 -174 -30
-63 -126 -115 -161 -86 -21 17 -19 68 7 146 14 42 30 71 45 81 13 8 23 22 23
29 0 16 23 18 50 4z"/>
<path d="M1416 829 c-4 -9 -5 -29 -2 -45 3 -16 6 -80 7 -141 1 -85 4 -113 14
-113 8 0 14 19 17 53 8 93 67 182 146 219 46 22 46 37 0 19 -38 -14 -97 -70
-129 -121 l-29 -45 -1 65 c-2 80 -13 132 -23 109z"/>
<path d="M2914 728 c-9 -100 -5 -170 9 -184 3 -3 16 -2 31 2 28 7 120 83 111
92 -3 3 -15 -4 -28 -15 -24 -22 -80 -53 -96 -53 -18 0 -23 41 -12 108 22 147
23 162 8 162 -10 0 -16 -28 -23 -112z"/>
<path d="M3189 822 c-26 -27 -46 -72 -62 -145 -32 -142 0 -184 101 -136 81 40
127 137 102 213 -23 70 -103 108 -141 68z m81 -12 c43 -23 63 -118 36 -174
-30 -63 -126 -115 -161 -86 -21 17 -19 68 7 146 14 42 30 71 45 81 13 8 23 22
23 29 0 16 23 18 50 4z"/>
<path d="M5738 823 c-57 -65 -93 -246 -58 -288 17 -21 46 -19 98 6 81 40 127
137 102 213 -23 70 -106 110 -142 69z m82 -13 c43 -23 63 -118 36 -174 -30
-63 -126 -115 -161 -86 -21 17 -19 68 7 146 14 42 30 71 45 81 13 8 23 22 23
29 0 16 23 18 50 4z"/>
<path d="M6248 823 c-26 -30 -40 -63 -59 -140 -35 -146 -1 -195 99 -140 83 45
127 136 102 211 -23 70 -106 110 -142 69z m82 -13 c41 -22 64 -125 38 -172
-22 -39 -81 -88 -116 -94 -65 -13 -78 36 -40 152 14 42 30 71 45 81 13 8 23
22 23 29 0 16 23 18 50 4z"/>
<path d="M7908 823 c-57 -66 -93 -246 -57 -289 16 -20 46 -17 97 7 81 40 127
137 102 213 -23 70 -106 110 -142 69z m82 -13 c43 -23 63 -118 36 -174 -30
-63 -126 -115 -161 -86 -21 17 -19 68 7 146 14 42 30 71 45 81 13 8 23 22 23
29 0 16 23 18 50 4z"/>
<path d="M9028 785 c-2 -56 -3 -87 -8 -140 -8 -81 5 -109 43 -100 29 8 121 84
112 93 -3 3 -15 -4 -28 -15 -24 -22 -80 -53 -96 -53 -18 0 -23 45 -11 110 20
110 21 160 5 160 -11 0 -15 -14 -17 -55z"/>
<path d="M9298 823 c-57 -66 -93 -246 -57 -289 16 -20 46 -17 96 7 80 39 128
137 103 213 -23 70 -106 110 -142 69z m82 -13 c43 -23 63 -118 36 -174 -30
-63 -126 -115 -161 -86 -21 17 -19 68 7 146 14 42 30 71 45 81 13 8 23 22 23
29 0 16 23 18 50 4z"/>
<path d="M574 797 c-16 -19 -45 -61 -64 -92 -38 -64 -78 -115 -89 -115 -3 0
-3 39 0 87 8 99 1 159 -15 142 -3 -2 -6 -62 -7 -132 -2 -94 1 -131 11 -140 10
-9 13 -9 17 1 3 7 10 18 16 25 27 29 74 94 91 127 25 49 64 96 72 87 4 -3 13
-46 20 -94 17 -104 29 -133 59 -133 28 0 71 34 90 71 19 35 4 39 -19 4 -9 -14
-27 -32 -41 -41 -44 -29 -59 3 -80 157 -3 26 -12 54 -19 64 -11 16 -15 14 -42
-18z"/>
<path d="M3604 796 c-16 -18 -49 -65 -72 -104 -24 -39 -52 -78 -63 -88 -19
-17 -19 -15 -17 94 1 101 -3 134 -16 121 -3 -3 -6 -62 -7 -133 -1 -90 2 -131
11 -139 10 -9 14 -9 17 1 3 7 10 18 16 25 27 29 74 94 91 127 25 49 64 96 72
87 4 -4 13 -48 21 -98 7 -50 18 -99 23 -110 22 -40 93 -10 125 52 19 35 4 39
-19 4 -9 -14 -27 -32 -41 -41 -43 -28 -59 3 -80 156 -6 40 -20 80 -29 80 -2 0
-17 -15 -32 -34z"/>
<path d="M5420 805 c-14 -15 -36 -46 -50 -69 -41 -69 -76 -120 -94 -136 -17
-13 -18 -7 -16 86 3 125 2 134 -10 134 -15 0 -13 -267 2 -276 6 -4 14 -2 16 4
2 7 9 18 15 25 27 29 74 94 91 127 24 46 64 96 71 89 3 -4 12 -46 20 -95 9
-49 20 -99 25 -111 19 -45 92 -17 125 48 19 35 4 39 -19 4 -9 -14 -27 -32 -41
-41 -44 -29 -59 3 -80 157 -3 26 -11 54 -18 63 -11 16 -15 15 -37 -9z"/>
<path d="M8369 788 c0 -24 -2 -74 -4 -113 -3 -38 0 -82 6 -97 19 -48 38 -43
109 29 99 101 95 99 96 41 3 -87 55 -131 105 -88 23 21 18 22 -26 4 -8 -3 -25
6 -41 21 -24 25 -26 31 -21 84 4 31 13 71 22 89 9 17 15 42 13 54 -3 19 -9 13
-30 -32 -24 -51 -137 -177 -181 -202 -27 -15 -35 24 -31 145 3 70 1 107 -6
107 -5 0 -10 -19 -11 -42z"/>
<path d="M9714 797 c-16 -19 -49 -66 -72 -105 -24 -39 -52 -78 -63 -88 -19
-17 -19 -15 -18 95 1 101 -3 133 -15 120 -3 -2 -6 -62 -7 -132 -2 -94 1 -131
11 -140 10 -9 13 -9 17 1 3 7 10 18 16 25 27 29 74 94 91 127 24 46 64 96 71
89 3 -4 12 -46 20 -95 9 -49 20 -99 25 -111 19 -45 92 -17 125 48 19 35 4 39
-19 4 -9 -14 -27 -32 -41 -41 -44 -29 -59 3 -80 157 -3 26 -12 54 -19 64 -11
16 -15 14 -42 -18z"/>
</g>
</svg>
